<?xml version="1.0" standalone="no"?><!DOCTYPE svg PUBLIC "-//W3C//DTD SVG 1.1//EN" "http://www.w3.org/Graphics/SVG/1.1/DTD/svg11.dtd"><svg t="1717154663733" class="icon" viewBox="0 0 1024 1024" version="1.1" xmlns="http://www.w3.org/2000/svg" p-id="95744" xmlns:xlink="http://www.w3.org/1999/xlink" width="200" height="200"><path d="M204.187438 3.062812h612.562313c112.813559 0 204.187438 91.373878 204.187437 204.187437v612.562313c0 112.813559-91.373878 204.187438-204.187437 204.187438H204.187438c-112.813559 0-204.187438-91.373878-204.187438-204.187438v-612.562313C0 94.43669 91.373878 3.062812 204.187438 3.062812z" fill="#FFD131" p-id="95745"></path><path d="M204.187438 3.062812h612.562313c112.813559 0 204.187438 91.373878 204.187437 204.187437v612.562313c0 112.813559-91.373878 204.187438-204.187437 204.187438H204.187438c-112.813559 0-204.187438-91.373878-204.187438-204.187438v-612.562313C0 94.43669 91.373878 3.062812 204.187438 3.062812z" fill="#FFD131" p-id="95746"></path><path d="M770.807577 3.062812c-19.908275 15.824526-44.410768 32.66999-72.48654 45.942173-74.528415 34.711864-80.143569 28.075773-180.705882 31.138584S377.74676 193.467597 426.751745 218.480558C467.078764 237.367896 497.706879 357.328016 497.706879 357.328016l21.95015-22.971087c-7.14656-26.033898-26.544367-85.758724-58.703888-128.127617-52.067797-26.544367-11.230309-98.00997 78.101694-95.457627 104.135593 3.062812 125.064806-9.698903 190.404786-43.900299 33.690927-17.866401 61.256231-41.347956 83.206381-64.319043H770.807577v0.510469z" fill="#5A6066" p-id="95747"></path><path d="M878.005982 535.992024c-35.222333-129.659023-74.528415-213.886341-165.391824-238.388834-12.761715-4.083749-26.033898-6.125623-39.306082-5.615154-27.565304 0-50.025922 8.677966-71.976072 15.824526C576.829511 316.490528 548.753739 326.6999 506.384845 326.6999s-70.444666-10.209372-94.947158-18.887338c-21.95015-7.14656-43.900299-15.824526-70.444666-15.824526-13.272183 0-26.544367 1.531406-39.306082 5.615154-90.86341 25.012961-132.211366 109.240279-165.902293 238.388834-39.306082 147.014955-27.565304 248.598205 29.09671 273.611166 9.188435 4.083749 19.397807 6.125623 29.09671 5.615155 52.578265 0 98.00997-52.578265 136.295114-92.905284l10.209372-11.740778c29.09671-33.690927 90.86341-52.578265 166.923231-52.578265 83.716849 0 134.763709 15.824526 166.92323 52.578265l10.209372 11.740778c36.753739 42.368893 83.206381 92.905284 136.295115 92.905284 10.209372 0.510469 19.908275-1.531406 29.096709-5.615155 56.151545-24.502493 67.892323-126.596211 28.075773-273.611166z" fill="#F5F5F5" p-id="95748"></path><path d="M315.98006 519.657029m-105.156531 0a105.15653 105.15653 0 1 0 210.313061 0 105.15653 105.15653 0 1 0-210.313061 0Z" fill="#9B9691" p-id="95749"></path><path d="M385.914257 497.196411h-41.858424v-43.900299c0.510469-5.615155-4.083749-10.71984-9.698904-11.230309h-31.138584c-5.615155 0.510469-9.698903 5.615155-9.188435 11.230309v43.900299h-42.879362c-5.615155 0-12.761715 2.041874-12.761715 7.657029v31.138584c1.020937 6.125623 6.125623 10.71984 12.761715 11.230309h42.879362v40.837488c-0.510469 4.594217 3.062812 8.677966 7.657029 9.188434H334.356929c4.594217 0.510469 9.188435-3.062812 9.698904-7.657029v-41.858424h41.858424c5.615155 0 7.657029-5.615155 7.657029-11.230309V505.363908c1.020937-3.57328-1.531406-6.636092-4.594217-7.657029-1.020937-0.510469-2.041874-0.510469-3.062812-0.510468z" fill="#5A6066" p-id="95750"></path><path d="M586.017946 509.447657m-33.180458 0a33.180459 33.180459 0 1 0 66.360917 0 33.180459 33.180459 0 1 0-66.360917 0Z" fill="#28B470" p-id="95751"></path><path d="M675.34995 416.542373m-33.180458 0a33.180459 33.180459 0 1 0 66.360917 0 33.180459 33.180459 0 1 0-66.360917 0Z" fill="#0091FF" p-id="95752"></path><path d="M768.255234 505.363908m-33.180458 0a33.180459 33.180459 0 1 0 66.360917 0 33.180459 33.180459 0 1 0-66.360917 0Z" fill="#FF4867" p-id="95753"></path><path d="M673.308076 597.758724m-33.180459 0a33.180459 33.180459 0 1 0 66.360917 0 33.180459 33.180459 0 1 0-66.360917 0Z" fill="#FFD300" p-id="95754"></path><path d="M395.613161 381.32004h209.802592v27.565304H395.613161v-27.565304z" fill="#DDDDDD" p-id="95755"></path></svg>