<svg version="1.2" baseProfile="tiny-ps" xmlns="http://www.w3.org/2000/svg" viewBox="0 0 1491 1491" width="1491" height="1491">
	<title>quanlishi-svg</title>
	<style>
		tspan { white-space:pre }
		.shp0 { fill: #000000 } 
		.shp1 { fill: #fc644a } 
	</style>
	<path id="Layer" class="shp0" d="M15.96 1256.77L159.23 1256.77C160.94 1256.77 162.64 1256.56 164.3 1256.14C165.96 1255.73 167.56 1255.11 169.06 1254.31C170.57 1253.51 171.97 1252.53 173.24 1251.38C174.51 1250.24 175.64 1248.95 176.59 1247.53L701.81 469.75C706.61 462.64 713.07 456.82 720.64 452.8C728.22 448.77 736.66 446.67 745.23 446.67C753.81 446.67 762.25 448.77 769.82 452.8C777.39 456.82 783.86 462.64 788.66 469.75L1316.85 1252.15C1317.33 1252.86 1317.89 1253.5 1318.53 1254.07C1319.16 1254.64 1319.87 1255.14 1320.62 1255.54C1321.37 1255.94 1322.17 1256.25 1323 1256.45C1323.83 1256.66 1324.68 1256.77 1325.53 1256.77L1474.39 1256.77C1477.27 1256.76 1480.09 1255.97 1482.55 1254.48C1485 1252.98 1487.01 1250.84 1488.33 1248.29C1489.66 1245.74 1490.26 1242.87 1490.07 1240C1489.88 1237.13 1488.9 1234.37 1487.25 1232.01L809.67 266.42C802.42 256.09 792.78 247.67 781.59 241.85C770.39 236.04 757.96 233 745.35 233C732.73 233 720.3 236.04 709.11 241.85C697.91 247.67 688.28 256.09 681.03 266.42L3.07 1232.01C1.42 1234.37 0.44 1237.13 0.25 1240C0.06 1242.87 0.66 1245.74 1.99 1248.29C3.31 1250.84 5.31 1252.98 7.77 1254.48C10.23 1255.97 13.05 1256.76 15.93 1256.77L15.96 1256.77Z" />
	<path id="Layer" class="shp1" d="M352.13 1256.77L498.45 1256.77C499.9 1256.76 501.34 1256.56 502.73 1256.17C504.12 1255.77 505.45 1255.19 506.69 1254.43C507.92 1253.67 509.04 1252.74 510.02 1251.67C511 1250.61 511.82 1249.41 512.48 1248.12L589.18 1095.95L903 1095.95L985.91 1256.77L1138.22 1256.77C1140.05 1256.76 1141.84 1256.28 1143.43 1255.37C1145.01 1254.45 1146.33 1253.14 1147.25 1251.56C1148.17 1249.98 1148.67 1248.19 1148.68 1246.36C1148.7 1244.53 1148.23 1242.73 1147.33 1241.13L886.67 780.26C884.37 776.2 880.8 773.01 876.5 771.18C872.2 769.35 867.43 768.99 862.9 770.16C858.38 771.32 854.37 773.95 851.49 777.62C848.62 781.3 847.03 785.82 846.98 790.49L845.32 971.44L645.12 971.44L641.43 788.65C641.35 783.99 639.73 779.48 636.82 775.83C633.92 772.19 629.89 769.59 625.37 768.46C620.84 767.33 616.07 767.72 611.79 769.58C607.51 771.43 603.96 774.64 601.69 778.72L342.98 1241.16C342.09 1242.76 341.64 1244.56 341.65 1246.39C341.67 1248.21 342.17 1250 343.09 1251.58C344.02 1253.16 345.34 1254.46 346.92 1255.37C348.51 1256.28 350.3 1256.76 352.13 1256.77Z" />
</svg>