<?xml version="1.0" encoding="utf-8"?>
<!-- Generator: Adobe Illustrator 24.1.0, SVG Export Plug-In . SVG Version: 6.00 Build 0)  -->
<svg version="1.1" id="图层_1" xmlns="http://www.w3.org/2000/svg" xmlns:xlink="http://www.w3.org/1999/xlink" x="0px" y="0px"
	 viewBox="0 0 308.4 199.7" style="enable-background:new 0 0 308.4 199.7;" xml:space="preserve">
<style type="text/css">
	.st0{fill:#0523A5;}
</style>
<g>
	<rect x="0.4" y="148" class="st0" width="27.7" height="3"/>
	<rect x="280.7" y="148" class="st0" width="27.7" height="3"/>
	<g>
		<g>
			<path class="st0" d="M17.2,57.4c-2.3,0-4.4,1.3-5.5,3.3L0,82.6h9.3v23.4h14.6V71.7h-2.7l7.9-14.3H17.2z"/>
			<path class="st0" d="M60.1,93V80l18.9-1.6v-7.1l-18.9,1.6v-1.8v-7.5c0-3.5-2.8-6.3-6.3-6.3h-8.4v16.8l0,0L30,75.4v7l15.4-1.2
				v11.9c0,7.1,5.8,12.9,12.9,12.9h22.6v-6.6H66.5C62.9,99.3,60.1,96.5,60.1,93z"/>
			<path class="st0" d="M66.5,39.8c0-3.7-3-6.7-6.7-6.7h-8.2v6.7H29.4c0-3.7-2.9-6.7-6.6-6.7h-8.2v6.7H6.7c-3.7,0-6.7,3-6.7,6.7v0.1
				h14.6v8.1h14.8v-8.1h22.3v8.1h14.8v-8.1h7.7c3.7,0,6.7-3,6.7-6.7v-0.1H66.5z"/>
		</g>
		<g>
			<path class="st0" d="M108.3,65.8c0,0-3.4-12.1-5.2-18.7c-0.7-2.5-2.9-4.2-5.5-4.2h-8.4l6.4,22.9H108.3z"/>
			<path class="st0" d="M161.3,42.9h-8.2c-2.5,0-4.8,1.7-5.5,4.1l-5.4,18.8h12.5L161.3,42.9z"/>
			<path class="st0" d="M131.6,63.4L131.6,63.4V39.3c0-1.7-0.7-3.3-1.8-4.4c-0.7-0.7-1.6-1.2-2.6-1.6c-0.6-0.2-1.2-0.3-1.9-0.3l0,0
				h-6.6l0,0v30.3c0,16.4-13.3,31.3-29.7,31.3v11.3c15.2,0,28.6-8,36-20.1c7.5,12,20.9,20.1,36,20.1V94.7
				C144.9,94.7,131.6,79.8,131.6,63.4z"/>
		</g>
		<g>
			<path class="st0" d="M302.4,34.9h-57.1V106h3.4v-3.1H305v3.1c1.9,0,3.4-1.5,3.4-3.4V40.8C308.4,37.6,305.7,34.9,302.4,34.9z
				 M305,99.5h-56.2V38.3h52.5c2.1,0,3.7,1.7,3.7,3.7V99.5z"/>
			<path class="st0" d="M281,66.1c1.3-0.9,2.5-1.9,3.7-2.8c6.9-5.8,12.4-12.9,12.4-14.9c0-1-0.8-1.8-1.8-1.8H266
				c0.1-0.6,0.1-0.9,0.1-1V44c0-1.9-1.5-3.4-3.4-3.4v5c0,0.1-0.1,8.6-10.7,13.9l-0.3,0.1l1.5,3l0.3-0.1c3.3-1.7,6.1-3.8,8.2-6.3
				c2.2,1.9,6.4,5.5,11.7,9.1c0.4,0.3,0.8,0.5,1.2,0.8c-7.2,4.2-14.5,6.3-21.9,6.3h-0.3v3.4h0.3c8.5,0,17-2.6,25.1-7.7
				c8.6,5.1,16.3,7.7,23.1,7.7h0.3v-3.4h-0.3C295.2,72.6,288.5,70.4,281,66.1z M277.8,64.2c-6.7-4.2-12-8.8-14.2-10.7
				c0.7-1.1,1.2-2.3,1.6-3.5h27.4c-1.3,1.8-4.7,6.4-10.7,11.2C280.6,62.2,279.2,63.3,277.8,64.2z"/>
			<path class="st0" d="M287.6,83.3L272,76.6c-1.7-0.7-3.7,0.1-4.5,1.8l15.6,6.7C284.8,85.8,286.8,85,287.6,83.3z"/>
			<path class="st0" d="M263.6,87.6l20.7,8.8c1.7,0.7,3.7-0.1,4.5-1.8l-20.7-8.8C266.4,85,264.4,85.8,263.6,87.6z"/>
		</g>
		<g>
			<path class="st0" d="M183.7,47l-9-9c-1.3-1.3-3.5-1.3-4.8,0l9,9C180.3,48.4,182.4,48.4,183.7,47z"/>
			<path class="st0" d="M196.2,47l9-9c-1.3-1.3-3.5-1.3-4.8,0l-9,9C192.8,48.4,195,48.4,196.2,47z"/>
			<path class="st0" d="M169.9,67.6c1.3,1.3,3.5,1.3,4.8,0l9-9c-1.3-1.3-3.5-1.3-4.8,0L169.9,67.6z"/>
			<path class="st0" d="M191.5,58.6l9,9c1.3,1.3,3.5,1.3,4.8,0l-9-9C195,57.3,192.8,57.3,191.5,58.6z"/>
			<path class="st0" d="M185.8,72.5c1.9,0,3.4-1.5,3.4-3.4V54.5h12.8c1.9,0,3.4-1.5,3.4-3.4h-16.2v-18h-3.4v18H173
				c-1.9,0-3.4,1.5-3.4,3.4h16.3L185.8,72.5L185.8,72.5z"/>
			<path class="st0" d="M201,77.5c-0.6-0.4-1.3-0.5-1.9-0.5h-16.6l1.8-3.7l-3.1-1.5l-2.5,5.2h-9.3c0,1.9,1.5,3.4,3.4,3.4h4.3
				l-2.5,5.2c-1,2.1-0.2,4.6,1.8,5.7l10.4,5.8c-4.3,3-10,5.1-17.3,5.1v3.4c9,0,15.7-2.8,20.6-6.6l9.7,5.4l1.7-3l-8.6-4.8
				c5.4-5.2,8.2-11.4,9.5-15.1C202.8,80,202.3,78.4,201,77.5z M189.8,94.8l-11.7-6.5c-0.4-0.2-0.6-0.8-0.4-1.2l3.2-6.7h18.3
				C197.8,84,195.1,90,189.8,94.8z"/>
			<path class="st0" d="M233.6,51.7c1.9,0,3.4-1.5,3.4-3.4l0,0h-25.2c-0.1,0-0.2,0-0.3-0.2c-0.1-0.1,0-0.2,0-0.3L224,38
				c1.5-1.2,1.7-3.3,0.6-4.7c0,0,0,0-0.1,0l-15.2,12l-0.2,0.2c-1,1.1-1.2,2.6-0.7,3.9c0.6,1.4,2.1,2.3,3.6,2.3h18.3v18.7
				c0,7.9-3.3,16-8.1,22l-3.1-2.4c-5.5-4.7-5.5-5.9-5.5-10.3V60.2c0-1.9-1.5-3.4-3.4-3.4v23c0,5.3,0.3,7.4,6.8,12.9l3,2.3
				c-4.3,4.4-9.4,7.2-14.4,7.2v3.4c6,0,12.1-3.3,17.1-8.5l12.4,9.4l2.1-2.7L225,94.6c5.3-6.6,8.8-15.4,8.8-24.1V51.7H233.6z"/>
		</g>
	</g>
	<g>
		<path class="st0" d="M197.7,158.2L197.7,158.2c0-1.9,1.5-3.4,3.4-3.4s3.4,1.5,3.4,3.4c0,1.9-1.5,3.4-3.4,3.4
			C199.3,161.6,197.7,160.1,197.7,158.2"/>
		<g>
			<path class="st0" d="M252.7,161.9L252.7,161.9L252.7,161.9z"/>
			<path class="st0" d="M266.3,147.9c-0.2-7.4-6.2-13.4-13.7-13.4c-2.5,0-4.8,0.7-6.8,1.8v-1.8h-6.8v13.6c0,0,0,0,0,0.1s0,0,0,0.1
				v13.6h6.8V160v-11.8v-0.1v-0.3l0,0c0.2-3.6,3.1-6.6,6.8-6.6c3.7,0,6.7,2.9,6.8,6.6l0,0V160v1.8h6.8L266.3,147.9L266.3,147.9z"/>
		</g>
		<path class="st0" d="M228.8,151c-1.1,2.4-3.5,4-6.2,4c-3.8,0-6.8-3.1-6.8-6.8c0-3.8,3.1-6.8,6.8-6.8c2.8,0,5.3,1.7,6.3,4.2l6-3.4
			c-2.2-4.5-6.9-7.6-12.3-7.6c-7.6,0-13.7,6.1-13.7,13.7c0,7.6,6.1,13.7,13.7,13.7c5.3,0,9.9-3,12.2-7.4L228.8,151z"/>
		<g>
			<g>
				<g>
					<path class="st0" d="M90.3,161.6v-2.1l-0.4,0.2c-2.1,1.2-4.4,1.8-6.8,1.8c-7.5,0-13.5-6.1-13.5-13.5c0-7.5,6.1-13.5,13.5-13.5
						c7.5,0,13.5,6.1,13.5,13.5v13.5L90.3,161.6L90.3,161.6z M83.1,140.9c-4,0-7.2,3.2-7.2,7.2s3.2,7.2,7.2,7.2c4,0,7.2-3.2,7.2-7.2
						S87.1,140.9,83.1,140.9z"/>
					<path class="st0" d="M62.7,161.6v-13.5c0-4-3.2-7.2-7.2-7.2c-4,0.2-7.2,3.6-7.2,7.6v13.1h-6.3v-40.7c3.5,0.1,6.3,3.1,6.3,6.6
						v9.2l0.4-0.2c1.8-1,3.7-1.6,5.8-1.8h0.1c0.3,0,0.6,0,0.9,0h0.1c0.2,0,0.4,0,0.7,0c0,0,0.6,0,0.7,0.1c0.1,0,0.3,0,0.4,0.1h0.3
						c0.2,0,0.3,0.1,0.5,0.1h0.1c0.7,0.1,1.3,0.3,1.8,0.5c0.2,0.1,0.4,0.1,0.6,0.2h0.1c0.2,0.1,0.3,0.2,0.5,0.2
						c1,0.5,1.9,1.1,2.8,1.8c0.9,0.7,1.6,1.5,2.3,2.4l0.1,0.1c0.6,0.9,1.2,1.8,1.6,2.9c-0.5,1.6-0.8,3.3-0.8,5
						c0,2.5,0.6,5.1,1.8,7.3v4.1l0,0v2h-6.4C62.7,161.4,62.7,161.6,62.7,161.6z"/>
					<path class="st0" d="M148.2,161.6v-2.1l-0.4,0.2c-2.1,1.2-4.4,1.8-6.8,1.8c-7.5,0-13.5-6.1-13.5-13.5c0-7.5,6.1-13.5,13.5-13.5
						c7.5,0,13.5,6.1,13.5,13.5v13.5L148.2,161.6L148.2,161.6z M141,140.9c-4,0-7.2,3.2-7.2,7.2s3.2,7.2,7.2,7.2s7.2-3.2,7.2-7.2
						S145,140.9,141,140.9z"/>
					<path class="st0" d="M120.7,161.6v-13.5c0-0.3,0-0.6-0.1-0.9c-0.4-3.3-3.1-5.9-6.4-6.3h-0.3c-0.1,0-0.3,0-0.5,0
						c-4,0-7.2,3.2-7.2,7.2v13.5h-6.3v-27.1h6.3v2.1l0.4-0.2c1.5-0.9,3.2-1.4,4.9-1.7h0.1c0.2,0,0.5-0.1,0.7-0.1h0.2
						c0.3,0,0.6,0,0.8,0c0.3,0,0.5,0,0.8,0h0.2c0.2,0,0.4,0,0.5,0h0.3c0.2,0,0.4,0.1,0.5,0.1h0.2c0.2,0,0.4,0.1,0.6,0.1
						c4.3,1.1,7.7,4.1,9.3,8.1c-0.6,1.6-0.8,3.4-0.8,5.1c0,2.6,0.6,5.1,1.8,7.4v6.1L120.7,161.6L120.7,161.6z"/>
					<path class="st0" d="M194.6,161.6L194.6,161.6v-13.8c0-3.8-3.1-6.9-6.9-6.9v13.8C187.6,158.5,190.7,161.6,194.6,161.6"/>
					<path class="st0" d="M191.2,130.8c-1.9,0-3.5,1.5-3.5,3.5c0,1.9,1.5,3.5,3.5,3.5c1.9,0,3.5-1.5,3.5-3.5
						C194.7,132.4,193.1,130.8,191.2,130.8z"/>
					<path class="st0" d="M184.8,146.9c0-0.2,0-0.4-0.1-0.7c0-0.2,0-0.3-0.1-0.5c0-0.2-0.1-0.4-0.1-0.7c-1.3-6.1-6.7-10.6-13.2-10.6
						l0,0c-0.4,0-0.8,0-1.1,0.1c-0.1,0-0.3,0-0.4,0c-0.3,0-0.5,0.1-0.8,0.1c-0.3,0.1-0.6,0.1-0.9,0.2c-0.1,0-0.2,0-0.3,0.1
						c-1.1,0.3-2.2,0.8-3.2,1.3l-0.3,0.2l-0.1,0.1v-9.3c0-3.6-2.8-6.5-6.3-6.6v27.1c0,0.1,0,0.2,0,0.3c0,0.1,0,0.2,0,0.3v13.2h6.3
						v-2.1l0.1,0.1l0.3,0.2c1,0.6,2.1,1,3.2,1.3c0.1,0,0.2,0.1,0.3,0.1c0.3,0.1,0.6,0.1,0.9,0.2c0.3,0,0.5,0.1,0.8,0.1
						c0.1,0,0.3,0,0.4,0c0.4,0,0.8,0.1,1.1,0.1l0,0c0.4,0,0.8,0,1.2-0.1c0.1,0,0.2,0,0.3,0c0.8-0.1,1.6-0.3,2.4-0.5
						c0.1,0,0.1,0,0.2-0.1c0.8-0.3,1.6-0.6,2.3-1l0,0c3.8-2.1,6.5-5.9,7-10.5l0,0c0-0.4,0.1-0.8,0.1-1.3v-0.1
						C184.9,147.7,184.8,147.3,184.8,146.9z M171.5,155.5c-4.1,0-7.5-3.3-7.5-7.5c0-4.1,3.3-7.5,7.5-7.5c4.1,0,7.5,3.3,7.5,7.5
						C178.9,152.1,175.6,155.5,171.5,155.5z"/>
				</g>
			</g>
		</g>
	</g>
</g>
</svg>
