<svg version="1.2" baseProfile="tiny-ps" xmlns="http://www.w3.org/2000/svg" viewBox="0 0 1024 1024" width="1024" height="1024">
	<title>字帖-svg</title>
	<style>
		tspan { white-space:pre }
		.shp0 { fill: #d05307 } 
	</style>
	<path id="Layer" class="shp0" d="M542.05 446.79C544.32 442.1 546.57 437.4 548.81 432.7C551.05 427.99 553.27 423.28 555.48 418.56C557.69 413.84 559.88 409.11 562.06 404.38C564.23 399.65 566.39 394.91 568.54 390.16C581.33 359.11 587.41 341.15 586.81 336.27C583.15 334.45 572.79 338.41 555.75 348.15C547.83 351.8 534.43 358.51 515.57 368.24C515.57 390.16 515.25 412.4 514.65 434.91C518.91 439.18 525 442.22 532.92 444.05C534.74 444.05 537.78 444.96 542.05 446.79L542.05 446.79ZM813.32 522.6C821.22 530.52 827.02 538.12 830.67 545.43C832.5 551.52 833.1 559.13 832.5 568.26C831.88 576.18 825.49 585.93 813.32 597.49C802.36 607.24 790.17 611.19 776.79 609.36C756.69 605.71 710.71 606.62 638.87 612.1C627.29 612.1 615.72 613.01 604.16 614.84C604.76 620.94 605.98 628.24 607.81 636.76C612.07 669.64 614.5 703.75 615.12 739.06C615.12 767.07 609.03 797.51 596.85 830.39C585.89 861.44 570.36 885.49 550.27 902.55C536.87 912.28 525.3 920.2 515.56 926.29L515.56 969.22L968.58 969.22L968.58 515.29L805.09 515.29C806.92 517.12 809.66 519.55 813.32 522.6L813.32 522.6ZM483.6 493.37C470.81 483.64 462.59 472.67 458.93 460.49C456.5 449.53 458.93 440.39 466.24 433.09C473.55 425.78 482.68 423.36 493.64 425.78C499.13 426.39 503.99 427.92 508.26 430.35L508.26 371.89C488.16 382.85 461.98 396.55 429.71 412.99C415.09 419.09 402.31 419.7 391.35 414.82C380.39 409.34 370.03 398.69 360.3 382.85C352.38 368.24 350.85 356.68 355.73 348.15C361.21 340.24 369.43 334.45 380.39 330.79C429.71 315.58 472.32 306.13 508.26 302.48L508.26 278.73C502.16 282.39 495.47 283.61 488.16 282.39C480.24 280.56 474.76 272.04 471.72 256.81C471.72 250.73 471.11 244.34 469.9 237.63C452.84 240.07 434.58 243.43 415.09 247.68C356.64 257.42 311.27 268.69 279.01 281.47C279.01 296.09 278.69 315.27 278.1 339.01C278.1 381.03 274.44 407.52 267.14 418.47C261.65 426.39 251.61 433.08 236.99 438.57C222.38 442.84 211.11 442.53 203.2 437.65C195.9 432.18 190.41 423.36 186.76 411.17C183.11 395.95 184.02 382.26 189.5 370.07C194.98 359.11 199.23 335.36 202.29 298.82C202.89 280.56 203.5 265.35 204.11 253.16L204.11 244.02C204.11 234.29 203.2 225.76 201.38 218.45C199.55 207.49 201.67 196.84 207.77 186.48C213.85 177.35 226.03 174.92 244.3 179.18C254.03 181.62 262.87 186.19 270.79 192.88C305.49 187.4 345.98 181.92 392.26 176.44C397.9 175.97 403.54 175.48 409.17 174.98C414.81 174.48 420.44 173.96 426.07 173.42C431.71 172.89 437.34 172.34 442.97 171.78C448.59 171.21 454.22 170.64 459.85 170.04C456.2 162.14 450.72 156.04 443.41 151.78C434.27 147.52 427.88 142.05 424.23 135.34C420.58 129.26 419.35 123.16 420.58 117.07C421.17 111.59 422.4 105.81 424.23 99.72C424.83 94.23 429.71 89.07 438.84 84.19C446.15 80.54 453.46 78.71 460.76 78.71C466.84 78.71 473.55 79.02 480.85 79.62C488.16 79.62 497.59 83.89 509.17 92.41C509.17 79.62 508.85 67.15 508.26 54.96L55.24 54.96L55.24 508.9L493.64 508.9C489.99 503.41 486.64 498.25 483.6 493.37L483.6 493.37ZM327.41 666.9C310.98 673 296.66 672.7 284.49 665.99C273.53 658.69 264.4 652.61 257.09 647.72C249.78 642.24 243.39 634.34 237.91 623.98C232.43 614.24 229.38 603.88 228.78 592.92C228.78 583.79 233.64 577.39 243.39 573.74C307.92 555.47 387.38 538.44 481.77 522.59C487.25 522 493.03 521.08 499.13 519.86C498.51 518.03 497.6 516.51 496.38 515.29L55.24 515.29L55.24 969.22L508.26 969.22L508.26 929.94C506.43 930.55 504.61 931.46 502.78 932.69C491.21 936.34 480.54 942.12 470.81 950.04C461.68 957.35 451.93 961.3 441.58 961.91C432.45 961.91 419.66 955.82 403.23 943.65C386.78 932.07 377.95 923.24 376.74 917.16C376.74 911.68 371.25 903.76 360.3 893.41C350.55 883.66 346.29 875.75 347.51 869.67C346.9 866.01 353.59 864.5 367.61 865.1C380.99 866.93 393.78 866.61 405.96 864.18C416.92 862.36 426.36 859.02 434.28 854.14C447.07 851.71 459.85 843.49 472.64 829.48C484.2 816.09 493.65 798.74 500.95 777.42C502.78 766.46 505.2 756.11 508.26 746.36L508.26 739.97C508.26 701.61 508.86 663.25 510.08 624.89C488.16 627.33 467.46 630.98 447.98 635.85C392.56 646.81 352.38 657.17 327.41 666.9L327.41 666.9Z" />
	<path id="Layer" fill-rule="evenodd" class="shp0" d="M1023.82 0.18L1023.82 1024L0 1024L0 0.18L1023.82 0.18ZM975.89 975.61L975.89 48.57L47.93 48.57L47.93 975.61L975.89 975.61Z" />
	<path id="Layer" class="shp0" d="M515.56 97.89C524.7 103.98 533.52 114.03 542.05 128.03C551.18 140.81 557.58 153 561.23 164.56C611.15 162.73 672.96 163.97 746.64 168.22C768.56 164.56 785 158.48 795.96 149.95C805.69 142.05 817.88 141.43 832.49 148.12C845.88 155.43 860.19 170.95 875.42 194.7C888.81 218.45 895.52 236.42 895.52 248.59C895.52 259.55 892.16 268.08 885.47 274.17C879.99 279.64 867.8 281.78 848.94 280.56C830.67 279.96 813.62 280.56 797.79 282.39C782.56 284.21 765.21 290.3 745.73 300.65C721.98 313.44 708.58 317.41 705.54 312.53C703.1 308.27 709.49 298.23 724.72 282.39C734.45 269.6 744.2 257.72 753.95 246.77C763.08 235.8 767.33 229.11 766.73 226.67C766.73 223.02 753.33 220.89 726.55 220.28C700.97 220.28 661.09 221.51 606.9 223.93C586.81 223.93 564.89 225.46 541.14 228.5C537.49 233.98 534.75 240.37 532.92 247.68C528.65 259.25 522.87 267.77 515.56 273.25L515.56 302.48L526.52 302.48C563.65 301.88 589.84 295.17 605.07 282.39C614.2 274.48 624.85 274.17 637.04 281.47C648.6 288.78 660.17 299.44 671.74 313.44C682.71 326.23 689.4 338.42 691.84 349.97C693.67 359.72 691.84 368.24 686.36 375.55C675.4 386.51 661.7 399.3 645.26 413.91C628.82 428.52 612.98 438.57 597.76 444.05C588.02 446.49 575.84 453.79 561.23 465.97C565.48 475.1 571.28 489.12 578.59 507.98C618.77 503.73 648.6 501.29 668.09 500.68C697.32 500.68 721.67 499.17 741.16 496.11C756.37 492.46 770.39 493.68 783.18 499.76C786.83 501.59 791.4 504.64 796.88 508.9L968.58 508.9L968.58 54.96L515.56 54.96L515.56 97.89Z" />
</svg>